<svg width="201" height="193" viewBox="0 0 201 193" fill="none" xmlns="http://www.w3.org/2000/svg">
<path fill-rule="evenodd" clip-rule="evenodd" d="M94.4892 2.01955C89.3622 7.14655 93.7842 14.5746 101.351 13.5456C108.548 12.5666 122.423 27.6246 119.186 32.9016C117.291 35.9896 95.7722 36.4086 92.4102 33.4216C88.9722 30.3676 83.4892 32.8346 83.4892 37.4356C83.4892 42.7396 88.7172 44.3816 93.3072 40.5196C97.6442 36.8696 115.01 36.6826 116.467 40.2696C117.257 42.2136 116.742 43.0576 112.685 46.4726C110.102 48.6476 104.771 53.7096 100.838 57.7226C95.6822 62.9846 92.9812 65.0196 91.1532 65.0196C79.3902 65.0196 76.7912 79.8666 88.0292 82.8716C90.3442 83.4906 91.4382 85.1216 94.8862 93.0886C99.6162 104.019 103.784 111.537 110.8 121.796C116.803 130.576 116.755 130.738 103.607 145.681C95.2252 155.208 95.2252 155.208 90.8712 154.555C83.0432 153.381 78.2832 161.659 83.8032 166.846C86.4132 169.297 88.4442 169.527 92.9822 167.886C95.7592 166.882 96.7382 167.094 101.553 169.741C104.543 171.384 110.589 174.666 114.989 177.034C123.615 181.676 124.45 182.43 124.474 185.596C124.482 186.737 125.531 188.65 126.803 189.846C133.012 195.678 141.947 188.674 138.01 181.061C133.775 172.871 148.063 163.71 161.755 165.837C178.058 168.369 185.102 163.716 184.74 150.654C184.601 145.625 184.962 144.246 187.082 141.727C189.013 139.432 189.442 138.082 188.95 135.843C188.589 134.199 188.798 132.352 189.432 131.588C190.784 129.96 191.04 125.64 190.036 121.419C189.331 118.452 189.541 118.182 194.894 115.161C202.861 110.664 202.644 109.035 192.475 97.0196C181.848 84.4626 181.144 82.0506 183.659 66.8186C188.678 36.4286 159.193 7.81255 121.294 6.29255C107.842 5.75355 107.55 5.69255 104.857 2.88155C101.588 -0.530446 97.3882 -0.879446 94.4892 2.01955ZM140.474 11.0706C152.977 15.0026 169.611 26.6546 168.151 30.4576C167.655 31.7506 167.099 31.8816 165.57 31.0626C164.498 30.4886 162.725 30.0196 161.631 30.0196C160.538 30.0196 158.305 28.8946 156.671 27.5196C154.907 26.0346 152.447 25.0196 150.614 25.0196C148.764 25.0196 145.218 23.5406 141.758 21.3246C135.797 17.5076 121.413 11.0196 118.91 11.0196C118.128 11.0196 117.489 10.2786 117.489 9.37155C117.489 7.14555 131.22 8.16055 140.474 11.0706ZM47.9202 12.3256C43.0762 16.4916 46.2142 25.0196 52.5902 25.0196C53.6852 25.0196 55.6842 23.9146 57.0342 22.5646C63.6242 15.9756 54.9742 6.25755 47.9202 12.3256ZM121.489 14.0716C134.37 18.6816 146.489 25.6476 146.489 28.4396C146.489 31.5086 133.307 33.9526 130.048 31.4876C128.98 30.6806 126.932 30.0196 125.497 30.0196C123.495 30.0196 122.23 28.9786 120.06 25.5466C118.505 23.0856 115.517 19.1586 113.42 16.8186C110.777 13.8686 109.973 12.3316 110.798 11.8076C112.434 10.7676 112.001 10.6756 121.489 14.0716ZM167.95 34.7926C179.453 41.1156 183.64 52.6656 180.999 70.7906C179.851 78.6626 176.54 78.9616 176.504 71.1956C176.468 63.2626 169.585 47.8696 161.847 38.4166C156.126 31.4266 158.866 29.7996 167.95 34.7926ZM147.989 34.0196C148.329 34.5696 150.28 35.0196 152.325 35.0196C156.476 35.0196 159.215 37.5026 165.008 46.5196C173.688 60.0296 174.927 69.3426 166.926 60.9326C161.859 55.6066 152.605 49.1716 143.887 44.9126C136.84 41.4696 135.489 40.4246 135.489 38.4176C135.489 34.7516 146.128 31.0086 147.989 34.0196ZM5.98921 36.9646C-4.55579 41.2846 -0.0637903 57.3246 11.1632 55.4406C20.0132 53.9546 20.8902 37.0196 12.1162 37.0196C11.3112 37.0196 10.0532 36.8226 9.32121 36.5826C8.58821 36.3416 7.08921 36.5136 5.98921 36.9646ZM148.328 49.3006C163.424 57.9946 174.489 70.4096 174.489 78.6526C174.489 98.5896 165.533 112.78 158.578 103.864C157.154 102.038 153.289 97.6696 149.989 94.1556C144.687 88.5116 143.985 87.2886 143.955 83.6436C143.921 79.4086 141.269 75.0196 138.745 75.0196C136.57 75.0196 134.967 69.2736 131.798 50.1196C130.534 42.4796 136.014 42.2086 148.328 49.3006ZM122.125 47.5136C123.7 48.3346 125.788 49.0096 126.764 49.0136C132.066 49.0316 134.833 71.8866 130.076 76.3726C125.562 80.6306 125.139 85.5286 128.972 89.1646C132.942 92.9306 131.45 100.154 123.327 116.496C118.127 126.957 117.874 127.168 114.869 123.52C105.272 111.865 91.1132 83.0876 94.3682 81.8526C97.6052 80.6256 99.3072 74.7866 97.6952 70.4386C95.7282 65.1296 97.4562 62.4866 109.576 52.2726C117.684 45.4406 117.953 45.3376 122.125 47.5136ZM183.202 87.7696C183.981 89.8646 190.58 98.9786 193.158 101.519C195.365 103.694 198.473 108.226 198.482 109.282C198.486 109.702 195.974 111.653 192.901 113.619C187.313 117.194 187.313 117.194 188.017 123.265C188.662 128.815 188.53 129.48 186.482 131.025C184.295 132.675 184.284 132.778 186.023 135.432C187.744 138.059 187.738 138.216 185.83 140.124C183.315 142.638 181.044 141.785 179.372 137.698C178.657 135.95 175.93 130.797 173.313 126.247C169.134 118.982 168.69 117.672 169.678 115.505C170.462 113.784 170.493 112.354 169.78 110.779C168.944 108.931 169.444 107.157 172.534 101.02C174.611 96.8946 177.002 91.8326 177.848 89.7696C179.477 85.7996 182.105 84.8176 183.202 87.7696ZM145.93 93.1016C163.201 108.266 162.78 117.141 144.032 133.109C131.058 144.158 114.592 136.413 122.509 122.985C125.981 117.097 129.27 109.455 132.525 99.7086C134.417 94.0456 135.321 92.6696 137.894 91.5406C142.146 89.6756 141.993 89.6456 145.93 93.1016ZM40.8432 92.7116C32.3682 94.3696 33.1652 108.931 41.8202 110.554C52.2472 112.51 57.4792 97.5256 47.8942 93.1586C45.3602 92.0036 44.6822 91.9606 40.8432 92.7116ZM166.671 120.27C184.624 134.613 186.026 164.845 168.69 163.813C159.172 163.247 137.87 152.639 137.415 148.238C137.374 147.843 137.14 146.434 136.896 145.107C136.541 143.179 137.511 141.773 141.72 138.11C144.618 135.589 150.258 130.262 154.254 126.273C161.531 119.009 163.75 117.936 166.671 120.27ZM124.489 142.693C124.489 147.703 123.984 148.132 111.796 153.463C98.3542 159.344 93.4202 159.124 100.115 152.944C101.56 151.611 105.612 146.92 109.12 142.52C112.628 138.12 115.998 133.92 116.61 133.187C118.739 130.636 124.489 137.573 124.489 142.693ZM138.989 152.685C140.639 153.986 142.544 155.504 143.222 156.059C143.901 156.614 146.038 158.002 147.972 159.143C152.57 161.856 152.414 162.695 146.866 165.073C144.324 166.162 140.161 169.269 137.616 171.977C130.784 179.246 125.827 180.368 118.454 176.315C115.448 174.663 109.276 171.395 104.739 169.054C94.2212 163.627 93.9892 162.096 103.239 159.144C106.952 157.959 113.364 155.25 117.489 153.123C126.396 148.53 133.534 148.385 138.989 152.685Z" fill="#142954"/>
<path fill-rule="evenodd" clip-rule="evenodd" d="M94.4892 2.01955C89.3622 7.14655 93.7842 14.5745 101.351 13.5465C109.706 12.4125 123.925 29.6005 118.61 34.4095C116.142 36.6435 95.1342 35.9135 92.4692 33.5015C89.0022 30.3635 83.4892 32.7785 83.4892 37.4355C83.4892 42.7395 88.7172 44.3815 93.3072 40.5195C97.6442 36.8695 115.01 36.6825 116.467 40.2695C117.257 42.2135 116.742 43.0575 112.685 46.4725C110.102 48.6475 104.74 53.7425 100.769 57.7955C94.3232 64.3745 93.0972 65.1965 89.3312 65.4655C79.1712 66.1885 77.7862 79.4605 87.5382 82.6465C90.5802 83.6405 91.3582 84.6655 94.0982 91.2865C98.2752 101.38 105.435 114.368 110.96 121.873C117.073 130.178 116.856 130.837 102.8 146.635C95.1412 155.244 95.1412 155.244 90.7582 154.643C82.9272 153.57 78.3042 161.68 83.8032 166.846C86.4112 169.295 88.4442 169.527 92.9672 167.892C95.7622 166.881 96.7572 167.128 102.538 170.271C106.086 172.2 112.139 175.459 115.989 177.514C123.534 181.54 124.45 182.413 124.474 185.596C124.495 188.417 128.543 192.02 131.693 192.02C136.958 192.02 140.946 185.325 137.999 181.432C132.879 174.665 148.135 163.566 159.776 165.589C177.151 168.608 184.872 164.025 184.684 150.803C184.611 145.66 184.996 144.206 187.093 141.714C189.014 139.431 189.441 138.08 188.95 135.843C188.596 134.231 188.796 132.355 189.399 131.628C190.763 129.984 190.992 126.568 190.05 121.913C189.329 118.348 189.385 118.27 194.905 115.155C202.368 110.943 202.327 108.066 194.688 100.02C183.249 87.9705 180.964 81.0275 183.645 66.4755C189.089 36.9275 158.744 7.87455 120.803 6.30755C107.9 5.77455 107.558 5.70155 104.866 2.89155C101.588 -0.530452 97.3912 -0.882452 94.4892 2.01955ZM141.908 11.5855C150.657 14.4455 158.858 19.2675 164.679 24.9725C168.463 28.6825 169.913 32.7795 167.052 31.6815C166.261 31.3785 163.857 30.6575 161.71 30.0795C159.563 29.5005 156.99 28.1266 155.993 27.0236C154.87 25.7836 152.911 25.0195 150.853 25.0195C148.803 25.0195 145.508 23.7395 142.258 21.6815C135.999 17.7175 127.536 13.6685 121.702 11.8475C119.376 11.1215 117.489 9.90355 117.489 9.12855C117.489 6.95955 132.322 8.45155 141.908 11.5855ZM47.9202 12.3255C43.0762 16.4915 46.2142 25.0195 52.5902 25.0195C53.6852 25.0195 55.6842 23.9145 57.0342 22.5645C63.6242 15.9755 54.9742 6.25755 47.9202 12.3255ZM121.279 13.9455C133.858 18.3935 146.49 25.6495 146.488 28.4245C146.486 31.3085 134.836 33.9535 131.057 31.9285C129.099 30.8785 126.459 30.0195 125.192 30.0195C123.551 30.0195 122.074 28.7315 120.06 25.5465C118.505 23.0855 115.517 19.1585 113.42 16.8185C110.777 13.8685 109.973 12.3315 110.798 11.8075C112.441 10.7625 112.059 10.6845 121.279 13.9455ZM167.95 34.7925C179.497 41.1395 183.82 53.0395 181.032 70.7985C179.872 78.1895 176.547 79.0565 176.504 71.9795C176.453 63.5305 170.738 50.0985 162.969 40.1685C160 36.3745 157.853 32.9895 158.197 32.6455C159.492 31.3495 163.152 32.1555 167.95 34.7925ZM147.989 34.0195C148.329 34.5695 150.339 35.0195 152.455 35.0195C157.234 35.0195 162.162 40.4155 168.411 52.4915C174.199 63.6765 173.471 67.8115 166.926 60.9325C161.777 55.5205 152.274 48.9365 143.883 44.9695C135.705 41.1025 133.978 39.4655 135.491 37.0155C137.336 34.0315 146.621 31.8055 147.989 34.0195ZM5.98921 36.9645C-4.55579 41.2845 -0.0637903 57.3245 11.1632 55.4405C20.0132 53.9545 20.8902 37.0195 12.1162 37.0195C11.3112 37.0195 10.0532 36.8225 9.32121 36.5825C8.58821 36.3415 7.08921 36.5135 5.98921 36.9645ZM148.328 49.3005C163.431 57.9995 174.576 70.5145 174.641 78.8495C174.781 96.8825 164.929 113.446 159.234 104.753C158.379 103.449 154.497 99.0375 150.607 94.9505C144.511 88.5465 143.611 87.1395 144.092 84.7665C144.725 81.6395 141.228 75.0195 138.943 75.0195C136.854 75.0195 135.719 72.1575 134.142 62.9156C133.354 58.2976 132.23 53.0175 131.644 51.1805C128.97 42.8066 135.73 42.0445 148.328 49.3005ZM122.125 47.5135C123.7 48.3345 125.788 49.0095 126.764 49.0135C132.066 49.0315 134.833 71.8865 130.076 76.3725C125.392 80.7905 125.42 87.5345 130.135 90.3195C133.075 92.0555 130.442 102.182 123.327 116.496C117.226 128.771 117.025 128.701 106.133 110.52C95.3142 92.4585 92.3122 84.1995 95.3722 80.9145C98.3872 77.6785 98.9812 74.5415 97.4552 69.9175C95.8622 65.0905 97.9192 62.0965 109.576 52.2725C117.684 45.4405 117.953 45.3375 122.125 47.5135ZM183.202 87.7695C183.834 89.4685 187.876 94.9735 195.01 103.848C199.743 109.736 199.617 110.257 192.489 114.232C187.989 116.741 187.989 116.741 188.296 123.084C188.564 128.631 188.329 129.632 186.423 131.07C184.283 132.684 184.276 132.766 186.066 135.497C187.884 138.272 187.881 138.286 185.01 140.755C182.132 143.231 182.132 143.231 178.89 136.68C177.108 133.078 174.05 127.401 172.095 124.065C169.014 118.808 168.691 117.671 169.671 115.519C170.461 113.786 170.494 112.356 169.78 110.779C168.944 108.931 169.444 107.157 172.534 101.02C174.611 96.8945 177.002 91.8325 177.848 89.7695C179.477 85.7995 182.105 84.8175 183.202 87.7695ZM145.93 93.1015C163.248 108.308 162.683 117.918 143.544 133.705C130.357 144.582 114.926 135.912 122.989 122.155C124.914 118.871 126.492 115.809 126.495 115.352C126.499 114.894 127.08 113.395 127.787 112.02C129.31 109.06 133.036 98.5865 133.847 94.9865C134.351 92.7535 137.098 91.0655 141.704 90.1605C142.098 90.0825 143.999 91.4065 145.93 93.1015ZM40.8432 92.7115C32.3682 94.3695 33.1652 108.931 41.8202 110.554C52.2472 112.51 57.4792 97.5255 47.8942 93.1585C45.3602 92.0035 44.6822 91.9605 40.8432 92.7115ZM166.671 120.27C171.363 124.019 182.489 147.476 182.489 153.619C182.489 167.461 163.792 167.824 144.752 154.351C134.721 147.253 134.22 143.897 142.225 137.442C144.845 135.329 150.271 130.32 154.283 126.31C161.597 119 163.761 117.945 166.671 120.27ZM124.284 143.01C123.989 147.52 123.989 147.52 115.353 151.743C98.1422 160.161 93.3582 159.998 101.635 151.277C104.641 148.111 109.069 142.82 111.475 139.52C117.21 131.654 117.422 131.562 121.278 135.3C124.19 138.122 124.544 139.031 124.284 143.01ZM138.989 152.685C143.696 156.396 143.78 156.455 147.739 158.883C152.159 161.594 152.529 163.542 148.8 164.478C144.466 165.566 134.489 173.718 134.489 176.171C134.489 180.944 123.347 179.031 110.142 171.992C93.7952 163.278 93.1702 162.108 103.239 159.065C106.952 157.943 113.364 155.262 117.489 153.107C126.362 148.471 133.466 148.331 138.989 152.685Z" fill="#142954"/>
<path fill-rule="evenodd" clip-rule="evenodd" d="M94.4892 2.01955C89.2032 7.30555 93.7392 14.4525 101.834 13.5915C109.944 12.7295 123.554 28.9755 118.967 34.0435C116.555 36.7085 95.6002 36.3345 92.5472 33.5725C89.0832 30.4375 83.4892 32.9825 83.4892 37.6935C83.4892 42.7585 88.8212 44.2935 93.3072 40.5195C97.6092 36.8995 114.709 36.6945 116.607 40.2395C117.688 42.2595 117.353 42.8185 112.892 46.4425C110.195 48.6335 104.683 53.8026 100.642 57.9296C93.9932 64.7196 92.9112 65.4425 89.2572 65.5335C79.2202 65.7855 77.8452 79.4795 87.5382 82.6465C90.5802 83.6405 91.3582 84.6655 94.0982 91.2865C98.2752 101.38 105.435 114.368 110.96 121.873C117.067 130.17 116.845 130.85 102.903 146.52C95.3462 155.014 95.3462 155.014 90.3072 154.795C82.3662 154.449 78.8822 160.436 83.5622 166.385C85.6832 169.082 90.7282 170.06 91.9892 168.02C93.1002 166.223 96.4442 166.961 102.771 170.399C106.191 172.258 112.139 175.459 115.989 177.514C123.581 181.565 124.451 182.404 124.474 185.697C124.492 188.327 128.895 192.02 132.013 192.02C136.989 192.02 140.847 185.195 137.999 181.432C132.825 174.594 147.381 163.723 159.308 165.518C177.804 168.302 184.874 164.202 184.684 150.803C184.611 145.66 184.996 144.206 187.093 141.714C188.924 139.538 189.433 138.039 189.003 136.084C188.681 134.618 189.055 131.903 189.835 130.049C190.824 127.696 190.986 125.752 190.37 123.606C188.978 118.753 189.177 118.387 194.989 115.107C202.202 111.036 202.135 107.984 194.661 100.02C183.141 87.7445 181.081 81.4305 183.608 66.1295C188.518 36.3985 158.564 7.86655 120.803 6.30755C107.9 5.77455 107.558 5.70155 104.866 2.89155C101.588 -0.530452 97.3912 -0.882452 94.4892 2.01955ZM141.908 11.5855C150.657 14.4455 158.858 19.2675 164.679 24.9725C168.463 28.6825 169.913 32.7795 167.052 31.6815C166.261 31.3785 163.857 30.6575 161.71 30.0795C159.563 29.5005 156.99 28.1266 155.993 27.0236C154.862 25.7746 152.911 25.0195 150.814 25.0195C148.921 25.0195 145.664 23.8925 143.37 22.4445C134.992 17.1555 127.531 13.6545 118.176 10.6215C117.136 10.2845 116.664 9.54555 117.069 8.89055C118.203 7.05455 132.94 8.65455 141.908 11.5855ZM47.9202 12.3255C43.0762 16.4915 46.2142 25.0195 52.5902 25.0195C53.6852 25.0195 55.6842 23.9145 57.0342 22.5645C63.6242 15.9755 54.9742 6.25755 47.9202 12.3255ZM120.317 13.5005C132.11 17.4095 146.489 25.6365 146.489 28.4755C146.489 31.4175 134.469 34.1706 130.996 32.0236C129.212 30.9216 126.658 30.0195 125.32 30.0195C123.528 30.0195 122.144 28.8435 120.062 25.5495C118.508 23.0905 115.505 19.2035 113.389 16.9115C107.423 10.4495 108.908 9.71855 120.317 13.5005ZM167.95 34.7925C177.079 39.8115 183.393 51.9335 182.129 62.0195C180.726 73.2245 180.158 76.1055 179.245 76.6705C177.923 77.4875 176.523 75.0915 176.504 71.9795C176.454 63.5865 170.981 50.7035 163.079 40.3745C160.072 36.4445 157.885 32.9575 158.217 32.6245C159.493 31.3495 163.179 32.1705 167.95 34.7925ZM147.989 34.0195C148.329 34.5695 150.339 35.0195 152.455 35.0195C157.234 35.0195 162.162 40.4155 168.411 52.4915C174.199 63.6765 173.471 67.8115 166.926 60.9325C161.777 55.5205 152.274 48.9365 143.883 44.9695C133.417 40.0205 132.179 37.4795 138.816 34.5725C142.616 32.9075 147.134 32.6355 147.989 34.0195ZM5.98921 36.9645C-4.55579 41.2845 -0.0637903 57.3245 11.1632 55.4405C20.0132 53.9545 20.8902 37.0195 12.1162 37.0195C11.3112 37.0195 10.0532 36.8225 9.32121 36.5825C8.58821 36.3415 7.08921 36.5135 5.98921 36.9645ZM152.423 51.8235C158.413 55.7685 170.186 66.9425 172.65 71.0195C179.957 83.1145 166.774 116.262 159.234 104.753C158.379 103.449 154.497 99.0375 150.607 94.9505C144.456 88.4885 143.608 87.1535 144.103 84.7145C144.717 81.6885 141.06 75.0396 138.774 75.0266C136.856 75.0156 135.683 71.9486 134.142 62.9156C133.354 58.2976 132.23 53.0166 131.643 51.1796C128.642 41.7796 137.596 42.0565 152.423 51.8235ZM122.125 47.5135C123.7 48.3345 125.77 49.0095 126.726 49.0135C132.212 49.0325 135.003 71.7255 130.089 76.3605C125.675 80.5236 125.326 84.4835 128.989 88.8375C132.932 93.5225 131.644 99.8435 123.348 116.52C117.248 128.781 117.026 128.704 106.133 110.52C95.3142 92.4585 92.3122 84.1995 95.3722 80.9145C98.3712 77.6965 98.9832 74.5455 97.4892 70.0185C95.9772 65.4385 97.0942 63.4585 105.668 55.5165C116.476 45.5065 117.407 45.0535 122.125 47.5135ZM183.489 88.1845C183.489 89.0615 187.417 94.4025 195.01 103.848C199.743 109.736 199.617 110.257 192.489 114.232C187.989 116.741 187.989 116.741 188.296 123.084C188.568 128.71 188.345 129.62 186.322 131.146C184.15 132.784 184.123 132.958 185.765 134.772C188.121 137.376 187.941 138.519 184.785 141.002C182.081 143.129 182.081 143.129 178.865 136.629C177.096 133.054 174.05 127.401 172.095 124.065C169.014 118.808 168.691 117.671 169.671 115.519C170.459 113.792 170.493 112.351 169.785 110.779C168.948 108.918 169.537 106.995 173.129 99.8685C175.527 95.1105 177.489 90.8225 177.489 90.3405C177.489 87.9175 180.698 84.9485 182.079 86.0945C182.855 86.7375 183.489 87.6785 183.489 88.1845ZM145.537 92.7135C163.102 107.494 162.791 117.199 144.243 133.163C130.954 144.6 114.86 136.515 122.749 122.366C126.561 115.528 130.572 105.817 132.846 97.9185C134.249 93.0435 134.881 92.1825 137.724 91.2705C142.312 89.7995 142.007 89.7435 145.537 92.7135ZM40.8432 92.7115C32.3682 94.3695 33.1652 108.931 41.8202 110.554C52.2472 112.51 57.4792 97.5255 47.8942 93.1585C45.3602 92.0035 44.6822 91.9605 40.8432 92.7115ZM167.517 120.554C180.38 136.053 185.927 159.525 177.546 162.996C159.781 170.355 129.121 149.029 141.699 138.062C144.564 135.564 150.076 130.283 153.949 126.327C161.282 118.834 164.835 117.322 167.517 120.554ZM124.489 143.077C124.489 147.742 124.489 147.742 116.239 151.513C96.5902 160.496 92.9242 160.453 101.563 151.344C104.079 148.691 108.337 143.595 111.025 140.02C117.37 131.579 117.417 131.558 121.233 135.256C123.991 137.93 124.489 139.125 124.489 143.077ZM139.489 152.921C141.414 154.344 143.214 155.76 143.489 156.067C143.764 156.374 145.677 157.651 147.739 158.904C152.159 161.59 152.53 163.542 148.8 164.478C144.466 165.566 134.489 173.718 134.489 176.171C134.489 180.961 123.258 179.043 110.102 172.007C93.7922 163.285 93.1762 162.121 103.239 159.034C106.952 157.895 113.364 155.214 117.489 153.076C126.513 148.398 133.308 148.35 139.489 152.921Z" fill="#142954"/>
<path fill-rule="evenodd" clip-rule="evenodd" d="M94.4892 2.01956C89.3062 7.20256 93.7892 14.5786 101.479 13.5206C106.846 12.7826 107.667 13.3546 116.127 23.7416C120.92 29.6266 121.439 31.8496 118.617 34.4036C115.967 36.8016 95.5012 36.2456 92.6872 33.6986C89.0942 30.4476 83.4892 32.8816 83.4892 37.6936C83.4892 42.7566 88.8212 44.2936 93.3022 40.5236C98.9622 35.7606 117.489 37.0046 117.489 42.1466C117.489 42.5556 114.147 45.6216 110.063 48.9586C105.979 52.2956 100.528 57.4956 97.9502 60.5136C94.1452 64.9676 92.8332 65.8926 90.9832 65.4286C80.6852 62.8436 77.3862 79.3306 87.5382 82.6466C90.5842 83.6416 91.3572 84.6646 94.1272 91.3586C99.0232 103.19 108.419 119.515 114.122 126.099C118.211 130.82 98.6682 155.64 91.5622 154.75C84.2822 153.839 79.4652 159.324 82.6162 164.938C84.4722 168.244 88.8882 169.876 91.5242 168.23C94.4392 166.41 95.9812 166.709 102.771 170.41C114.966 177.059 116.82 177.933 117.649 177.421C118.111 177.135 118.489 177.367 118.489 177.935C118.489 178.504 119.839 179.667 121.489 180.52C123.777 181.703 124.489 182.76 124.489 184.973C124.489 186.917 125.359 188.559 127.124 189.947C133.991 195.349 141.717 188.42 137.536 180.608C133.13 172.376 146.291 164.745 163.203 165.727C180.458 166.728 184.708 163.832 184.61 151.138C184.568 145.704 184.945 144.267 187.075 141.736C188.922 139.54 189.433 138.042 189.003 136.084C188.681 134.618 189.055 131.903 189.835 130.049C190.824 127.696 190.986 125.752 190.37 123.606C188.978 118.753 189.177 118.387 194.989 115.107C202.202 111.036 202.135 107.984 194.661 100.02C183.162 87.7676 180.719 80.1656 183.627 65.6866C186.959 49.0966 172.304 24.4116 153.012 14.1176C142.596 8.55856 135.805 7.02356 118.622 6.34456C107.51 5.90456 107.199 5.82856 104.783 2.95656C101.824 -0.559443 97.4652 -0.956443 94.4892 2.01956ZM128.989 8.01956C128.63 8.59956 129.61 9.01956 131.325 9.01956C137.62 9.01956 150.088 13.7666 157.493 18.9816C165.01 24.2756 171.207 32.0196 167.927 32.0196C165.526 32.0196 156.73 28.2986 155.682 26.8396C154.849 25.6786 153.115 25.0196 150.897 25.0196C148.984 25.0196 146.309 24.2926 144.954 23.4046C143.598 22.5166 142.489 22.1526 142.489 22.5956C142.489 23.0386 141.927 22.6496 141.239 21.7296C139.861 19.8866 129.684 14.7036 122.187 12.0266C115.884 9.77656 116.169 8.64856 123.22 7.93756C126.393 7.61756 129.128 7.28056 129.298 7.18756C129.468 7.09556 129.329 7.46956 128.989 8.01956ZM48.1242 12.0926C41.4342 17.3546 48.2302 27.6486 55.5422 23.3286C60.3942 20.4636 60.3882 13.6416 55.5322 11.0426C52.7262 9.54056 51.0692 9.77556 48.1242 12.0926ZM120.451 13.5066C132.406 17.5726 146.489 25.6686 146.489 28.4756C146.489 31.4176 134.469 34.1706 130.996 32.0236C129.212 30.9216 126.658 30.0196 125.32 30.0196C123.519 30.0196 122.136 28.8306 119.993 25.4386C118.4 22.9196 116.185 20.2196 115.071 19.4386C113.956 18.6586 113.392 18.0196 113.818 18.0196C114.244 18.0196 113.403 16.9176 111.95 15.5706C106.727 10.7306 109.972 9.94256 120.451 13.5066ZM167.95 34.7926C177.15 39.8496 183.403 51.8016 182.141 61.9146C180.732 73.1956 180.161 76.1046 179.245 76.6706C177.751 77.5936 176.752 75.2786 175.982 69.1156C174.668 58.5976 169.929 48.6956 160.816 37.4276C155.828 31.2596 159.234 30.0026 167.95 34.7926ZM147.989 34.0196C148.329 34.5696 150.339 35.0196 152.455 35.0196C157.234 35.0196 162.162 40.4156 168.411 52.4916C175.187 65.5856 173.932 67.4106 164.235 58.5616C160.082 54.7706 156.665 52.3986 155.824 52.7216C154.986 53.0426 154.526 52.7276 154.698 51.9506C154.872 51.1646 151.204 48.7366 145.575 45.9106C133.332 39.7646 131.977 37.4546 138.859 34.4596C142.579 32.8406 147.125 32.6216 147.989 34.0196ZM5.98921 36.9646C-4.44879 41.2406 0.00220966 57.3176 11.1072 55.4506C20.0042 53.9546 20.9312 37.0196 12.1162 37.0196C11.3112 37.0196 10.0532 36.8226 9.32121 36.5826C8.58821 36.3416 7.08921 36.5136 5.98921 36.9646ZM152.423 51.8236C158.413 55.7686 170.186 66.9426 172.65 71.0196C180.12 83.3836 166.909 116.466 159.199 104.701C158.364 103.425 154.497 99.0376 150.607 94.9506C144.456 88.4886 143.608 87.1536 144.103 84.7146C144.717 81.6886 141.06 75.0396 138.774 75.0266C136.927 75.0156 135.725 72.0726 134.457 64.4486C133.823 60.6376 132.685 55.3476 131.928 52.6926C128.793 41.7006 136.555 41.3716 152.423 51.8236ZM122.125 47.5136C123.7 48.3346 125.77 49.0096 126.726 49.0136C132.212 49.0326 135.003 71.7256 130.089 76.3606C125.675 80.5236 125.326 84.4836 128.989 88.8376C133.176 93.8136 126.451 116.917 118.311 125.52C115.869 128.101 99.6032 101.778 94.4242 86.8626C93.2322 83.4286 93.3222 83.0066 95.9102 79.9316C98.7182 76.5946 98.8302 75.2926 96.9512 67.8076C96.3482 65.4036 97.1042 64.2686 103.63 57.7876C115.822 45.6796 117.171 44.9296 122.125 47.5136ZM185.087 90.7696C187.099 93.9316 190.437 98.3676 192.505 100.626C199.81 108.604 199.837 110.304 192.714 114.13C187.989 116.668 187.989 116.668 188.296 123.047C188.567 128.678 188.34 129.624 186.365 131.113C184.269 132.694 184.234 132.908 185.808 134.482C188.161 136.835 187.909 138.545 184.854 140.947C182.194 143.04 180.289 143.65 180.727 142.27C181.125 141.014 178.319 134.949 173.313 126.247C169.134 118.982 168.69 117.672 169.678 115.505C170.459 113.79 170.492 112.348 169.785 110.779C168.948 108.918 169.537 106.995 173.129 99.8686C175.527 95.1106 177.489 90.8226 177.489 90.3406C177.489 89.3646 180.368 85.0196 181.015 85.0196C181.242 85.0196 183.074 87.6076 185.087 90.7696ZM144.968 91.9956C145.951 93.0826 147.157 93.7246 147.647 93.4216C148.138 93.1186 148.415 93.2596 148.264 93.7336C148.113 94.2086 150.219 97.2116 152.945 100.407C167.823 117.85 139.552 150.206 123.3 134.335C118.595 129.741 118.46 131.143 124.902 117.763C127.879 111.579 131.253 103.323 132.401 99.4146C134.286 92.9946 134.801 92.2086 137.738 91.2666C142.448 89.7556 142.99 89.8106 144.968 91.9956ZM40.8432 92.7116C32.3682 94.3696 33.1652 108.931 41.8202 110.554C52.2472 112.51 57.4792 97.5256 47.8942 93.1586C45.3602 92.0036 44.6822 91.9606 40.8432 92.7116ZM167.517 120.554C180.378 136.05 185.95 159.515 177.591 162.978C159.661 170.404 129.009 149.127 141.699 138.062C144.564 135.564 150.076 130.283 153.949 126.327C161.282 118.834 164.835 117.322 167.517 120.554ZM121.434 135.27C127.697 141.953 126.078 147.015 116.239 151.513C96.5902 160.496 92.9242 160.453 101.563 151.344C104.079 148.691 108.337 143.595 111.025 140.02C115.211 134.452 117.319 132.102 118.188 132.035C118.298 132.027 119.758 133.483 121.434 135.27ZM138.602 152.135C140.039 153.139 141.501 153.749 141.852 153.49C142.202 153.232 142.267 153.317 141.995 153.68C141.553 154.272 145.666 157.778 146.215 157.277C146.665 156.868 151.489 161.772 151.485 162.635C151.483 163.122 149.514 164.329 147.108 165.318C144.692 166.312 140.458 169.502 137.645 172.45C129.035 181.471 121.766 180.212 98.2392 165.624C94.5662 163.347 96.1982 161.194 103.239 159.028C106.952 157.885 113.364 155.194 117.489 153.047C125.885 148.676 133.202 148.36 138.602 152.135Z" fill="#142954"/>
<path fill-rule="evenodd" clip-rule="evenodd" d="M94.4892 2.01956C89.3062 7.20256 93.7892 14.5786 101.479 13.5206C106.846 12.7826 107.667 13.3546 116.127 23.7416C120.92 29.6266 121.439 31.8496 118.617 34.4036C115.967 36.8016 95.5012 36.2456 92.6872 33.6986C89.0942 30.4476 83.4892 32.8816 83.4892 37.6936C83.4892 42.7566 88.8212 44.2936 93.3022 40.5236C98.9622 35.7606 117.489 37.0046 117.489 42.1466C117.489 42.5556 114.147 45.6216 110.063 48.9586C105.979 52.2956 100.528 57.4956 97.9502 60.5136C94.1452 64.9676 92.8332 65.8926 90.9832 65.4286C80.6852 62.8436 77.3862 79.3306 87.5382 82.6466C90.5842 83.6416 91.3572 84.6646 94.1272 91.3586C99.0232 103.19 108.419 119.515 114.122 126.099C118.211 130.82 98.6682 155.64 91.5622 154.75C84.2822 153.839 79.4652 159.324 82.6162 164.938C84.4722 168.244 88.8882 169.876 91.5242 168.23C94.4392 166.41 95.9812 166.709 102.771 170.41C114.966 177.059 116.82 177.933 117.649 177.421C118.111 177.135 118.489 177.367 118.489 177.935C118.489 178.504 119.839 179.667 121.489 180.52C123.777 181.703 124.489 182.76 124.489 184.973C124.489 186.917 125.359 188.559 127.124 189.947C133.991 195.349 141.717 188.42 137.536 180.608C133.13 172.376 146.291 164.745 163.203 165.727C180.458 166.728 184.708 163.832 184.61 151.138C184.568 145.704 184.945 144.267 187.075 141.736C188.922 139.54 189.433 138.042 189.003 136.084C188.681 134.618 189.055 131.903 189.835 130.049C190.824 127.696 190.986 125.752 190.37 123.606C188.978 118.753 189.177 118.387 194.989 115.107C202.202 111.036 202.135 107.984 194.661 100.02C183.162 87.7676 180.719 80.1656 183.627 65.6866C186.959 49.0966 172.304 24.4116 153.012 14.1176C142.596 8.55856 135.805 7.02356 118.622 6.34456C107.51 5.90456 107.199 5.82856 104.783 2.95656C101.824 -0.559443 97.4652 -0.956443 94.4892 2.01956ZM128.989 8.01956C128.63 8.59956 129.61 9.01956 131.325 9.01956C137.62 9.01956 150.088 13.7666 157.493 18.9816C165.01 24.2756 171.207 32.0196 167.927 32.0196C165.526 32.0196 156.73 28.2986 155.682 26.8396C154.849 25.6786 153.115 25.0196 150.897 25.0196C148.984 25.0196 146.309 24.2926 144.954 23.4046C143.598 22.5166 142.489 22.1526 142.489 22.5956C142.489 23.0386 141.927 22.6496 141.239 21.7296C139.861 19.8866 129.684 14.7036 122.187 12.0266C115.884 9.77656 116.169 8.64856 123.22 7.93756C126.393 7.61756 129.128 7.28056 129.298 7.18756C129.468 7.09556 129.329 7.46956 128.989 8.01956ZM50.4892 10.7386C42.8842 13.4846 44.2112 24.0196 52.1632 24.0196C59.9052 24.0196 61.4662 12.6536 53.9892 10.7156C52.8892 10.4306 51.3142 10.4416 50.4892 10.7386ZM120.451 13.5066C132.406 17.5726 146.489 25.6686 146.489 28.4756C146.489 31.4176 134.469 34.1706 130.996 32.0236C129.212 30.9216 126.658 30.0196 125.32 30.0196C123.519 30.0196 122.136 28.8306 119.993 25.4386C118.4 22.9196 116.185 20.2196 115.071 19.4386C113.956 18.6586 113.392 18.0196 113.818 18.0196C114.244 18.0196 113.403 16.9176 111.95 15.5706C106.727 10.7306 109.972 9.94256 120.451 13.5066ZM167.95 34.7926C177.15 39.8496 183.403 51.8016 182.141 61.9146C180.732 73.1956 180.161 76.1046 179.245 76.6706C177.751 77.5936 176.752 75.2786 175.982 69.1156C174.668 58.5976 169.929 48.6956 160.816 37.4276C155.828 31.2596 159.234 30.0026 167.95 34.7926ZM147.989 34.0196C148.329 34.5696 150.339 35.0196 152.455 35.0196C157.234 35.0196 162.162 40.4156 168.411 52.4916C175.187 65.5856 173.932 67.4106 164.235 58.5616C160.082 54.7706 156.665 52.3986 155.824 52.7216C154.986 53.0426 154.526 52.7276 154.698 51.9506C154.872 51.1646 151.204 48.7366 145.575 45.9106C133.332 39.7646 131.977 37.4546 138.859 34.4596C142.579 32.8406 147.125 32.6216 147.989 34.0196ZM6.86321 36.7826C1.35721 37.6716 -2.12779 47.1616 1.46321 51.4876C7.53721 58.8066 18.4892 55.2176 18.4892 45.9076C18.4892 39.9166 13.1952 35.7616 6.86321 36.7826ZM152.423 51.8236C158.413 55.7686 170.186 66.9426 172.65 71.0196C180.12 83.3836 166.909 116.466 159.199 104.701C158.364 103.425 154.497 99.0376 150.607 94.9506C144.456 88.4886 143.608 87.1536 144.103 84.7146C144.717 81.6886 141.06 75.0396 138.774 75.0266C136.927 75.0156 135.725 72.0726 134.457 64.4486C133.823 60.6376 132.685 55.3476 131.928 52.6926C128.793 41.7006 136.555 41.3716 152.423 51.8236ZM122.125 47.5136C123.7 48.3346 125.77 49.0096 126.726 49.0136C132.212 49.0326 135.003 71.7256 130.089 76.3606C125.675 80.5236 125.326 84.4836 128.989 88.8376C133.176 93.8136 126.451 116.917 118.311 125.52C115.869 128.101 99.6032 101.778 94.4242 86.8626C93.2322 83.4286 93.3222 83.0066 95.9102 79.9316C98.7182 76.5946 98.8302 75.2926 96.9512 67.8076C96.3482 65.4036 97.1042 64.2686 103.63 57.7876C115.822 45.6796 117.171 44.9296 122.125 47.5136ZM185.087 90.7696C187.099 93.9316 190.437 98.3676 192.505 100.626C199.81 108.604 199.837 110.304 192.714 114.13C187.989 116.668 187.989 116.668 188.296 123.047C188.567 128.678 188.34 129.624 186.365 131.113C184.269 132.694 184.234 132.908 185.808 134.482C188.161 136.835 187.909 138.545 184.854 140.947C182.194 143.04 180.289 143.65 180.727 142.27C181.125 141.014 178.319 134.949 173.313 126.247C169.134 118.982 168.69 117.672 169.678 115.505C170.459 113.79 170.492 112.348 169.785 110.779C168.948 108.918 169.537 106.995 173.129 99.8686C175.527 95.1106 177.489 90.8226 177.489 90.3406C177.489 89.3646 180.368 85.0196 181.015 85.0196C181.242 85.0196 183.074 87.6076 185.087 90.7696ZM144.968 91.9956C145.951 93.0826 147.157 93.7246 147.647 93.4216C148.138 93.1186 148.415 93.2596 148.264 93.7336C148.113 94.2086 150.219 97.2116 152.945 100.407C167.823 117.85 139.552 150.206 123.3 134.335C118.595 129.741 118.46 131.143 124.902 117.763C127.879 111.579 131.253 103.323 132.401 99.4146C134.286 92.9946 134.801 92.2086 137.738 91.2666C142.448 89.7556 142.99 89.8106 144.968 91.9956ZM39.9652 93.4156C32.5522 96.6456 33.1522 107.433 40.8862 109.986C48.8972 112.63 55.5252 105.114 51.9072 97.4886C49.5362 92.4916 45.3572 91.0666 39.9652 93.4156ZM167.517 120.554C180.378 136.05 185.95 159.515 177.591 162.978C159.661 170.404 129.009 149.127 141.699 138.062C144.564 135.564 150.076 130.283 153.949 126.327C161.282 118.834 164.835 117.322 167.517 120.554ZM121.434 135.27C127.697 141.953 126.078 147.015 116.239 151.513C96.5902 160.496 92.9242 160.453 101.563 151.344C104.079 148.691 108.337 143.595 111.025 140.02C115.211 134.452 117.319 132.102 118.188 132.035C118.298 132.027 119.758 133.483 121.434 135.27ZM138.602 152.135C140.039 153.139 141.501 153.749 141.852 153.49C142.202 153.232 142.267 153.317 141.995 153.68C141.553 154.272 145.666 157.778 146.215 157.277C146.665 156.868 151.489 161.772 151.485 162.635C151.483 163.122 149.514 164.329 147.108 165.318C144.692 166.312 140.458 169.502 137.645 172.45C129.035 181.471 121.766 180.212 98.2392 165.624C94.5662 163.347 96.1982 161.194 103.239 159.028C106.952 157.885 113.364 155.194 117.489 153.047C125.885 148.676 133.202 148.36 138.602 152.135Z" fill="#142954"/>
<path fill-rule="evenodd" clip-rule="evenodd" d="M94.4892 2.01956C89.3062 7.20256 93.7892 14.5786 101.479 13.5206C106.846 12.7826 107.667 13.3546 116.127 23.7416C120.92 29.6266 121.439 31.8496 118.617 34.4036C115.967 36.8016 95.5012 36.2456 92.6872 33.6986C89.0942 30.4476 83.4892 32.8816 83.4892 37.6936C83.4892 42.7566 88.8212 44.2936 93.3022 40.5236C98.9622 35.7606 117.489 37.0046 117.489 42.1466C117.489 42.5556 114.147 45.6216 110.063 48.9586C105.979 52.2956 100.528 57.4956 97.9502 60.5136C94.1452 64.9676 92.8332 65.8926 90.9832 65.4286C80.6852 62.8436 77.3862 79.3306 87.5382 82.6466C90.5842 83.6416 91.3572 84.6646 94.1272 91.3586C99.0232 103.19 108.419 119.515 114.122 126.099C118.211 130.82 98.6682 155.64 91.5622 154.75C84.2822 153.839 79.4652 159.324 82.6162 164.938C84.4722 168.244 88.8882 169.876 91.5242 168.23C94.4392 166.41 95.9812 166.709 102.771 170.41C114.966 177.059 116.82 177.933 117.649 177.421C118.111 177.135 118.489 177.367 118.489 177.935C118.489 178.504 119.839 179.667 121.489 180.52C123.777 181.703 124.489 182.76 124.489 184.973C124.489 186.917 125.359 188.559 127.124 189.947C133.991 195.349 141.717 188.42 137.536 180.608C133.13 172.376 146.291 164.745 163.203 165.727C180.458 166.728 184.708 163.832 184.61 151.138C184.568 145.704 184.945 144.267 187.075 141.736C188.922 139.54 189.433 138.042 189.003 136.084C188.681 134.618 189.055 131.903 189.835 130.049C190.824 127.696 190.986 125.752 190.37 123.606C188.978 118.753 189.177 118.387 194.989 115.107C202.202 111.036 202.135 107.984 194.661 100.02C183.162 87.7676 180.719 80.1656 183.627 65.6866C186.959 49.0966 172.304 24.4116 153.012 14.1176C142.596 8.55856 135.805 7.02356 118.622 6.34456C107.51 5.90456 107.199 5.82856 104.783 2.95656C101.824 -0.559443 97.4652 -0.956443 94.4892 2.01956ZM128.989 8.01956C128.63 8.59956 129.61 9.01956 131.325 9.01956C137.62 9.01956 150.088 13.7666 157.493 18.9816C165.01 24.2756 171.207 32.0196 167.927 32.0196C165.526 32.0196 156.73 28.2986 155.682 26.8396C154.849 25.6786 153.115 25.0196 150.897 25.0196C148.984 25.0196 146.309 24.2926 144.954 23.4046C143.598 22.5166 142.489 22.1526 142.489 22.5956C142.489 23.0386 141.927 22.6496 141.239 21.7296C139.861 19.8866 129.684 14.7036 122.187 12.0266C115.884 9.77656 116.169 8.64856 123.22 7.93756C126.393 7.61756 129.128 7.28056 129.298 7.18756C129.468 7.09556 129.329 7.46956 128.989 8.01956ZM50.4892 10.7386C42.8842 13.4846 44.2112 24.0196 52.1632 24.0196C59.9052 24.0196 61.4662 12.6536 53.9892 10.7156C52.8892 10.4306 51.3142 10.4416 50.4892 10.7386ZM120.451 13.5066C132.406 17.5726 146.489 25.6686 146.489 28.4756C146.489 31.4176 134.469 34.1706 130.996 32.0236C129.212 30.9216 126.658 30.0196 125.32 30.0196C123.519 30.0196 122.136 28.8306 119.993 25.4386C118.4 22.9196 116.185 20.2196 115.071 19.4386C113.956 18.6586 113.392 18.0196 113.818 18.0196C114.244 18.0196 113.403 16.9176 111.95 15.5706C106.727 10.7306 109.972 9.94256 120.451 13.5066ZM167.95 34.7926C177.15 39.8496 183.403 51.8016 182.141 61.9146C180.732 73.1956 180.161 76.1046 179.245 76.6706C177.751 77.5936 176.752 75.2786 175.982 69.1156C174.668 58.5976 169.929 48.6956 160.816 37.4276C155.828 31.2596 159.234 30.0026 167.95 34.7926ZM147.989 34.0196C148.329 34.5696 150.339 35.0196 152.455 35.0196C157.234 35.0196 162.162 40.4156 168.411 52.4916C175.187 65.5856 173.932 67.4106 164.235 58.5616C160.082 54.7706 156.665 52.3986 155.824 52.7216C154.986 53.0426 154.526 52.7276 154.698 51.9506C154.872 51.1646 151.204 48.7366 145.575 45.9106C133.332 39.7646 131.977 37.4546 138.859 34.4596C142.579 32.8406 147.125 32.6216 147.989 34.0196ZM6.86321 36.7826C1.35721 37.6716 -2.12779 47.1616 1.46321 51.4876C7.53721 58.8066 18.4892 55.2176 18.4892 45.9076C18.4892 39.9166 13.1952 35.7616 6.86321 36.7826ZM152.423 51.8236C158.413 55.7686 170.186 66.9426 172.65 71.0196C180.12 83.3836 166.909 116.466 159.199 104.701C158.364 103.425 154.497 99.0376 150.607 94.9506C144.456 88.4886 143.608 87.1536 144.103 84.7146C144.717 81.6886 141.06 75.0396 138.774 75.0266C136.927 75.0156 135.725 72.0726 134.457 64.4486C133.823 60.6376 132.685 55.3476 131.928 52.6926C128.793 41.7006 136.555 41.3716 152.423 51.8236ZM122.125 47.5136C123.7 48.3346 125.77 49.0096 126.726 49.0136C132.212 49.0326 135.003 71.7256 130.089 76.3606C125.675 80.5236 125.326 84.4836 128.989 88.8376C133.176 93.8136 126.451 116.917 118.311 125.52C115.869 128.101 99.6032 101.778 94.4242 86.8626C93.2322 83.4286 93.3222 83.0066 95.9102 79.9316C98.7182 76.5946 98.8302 75.2926 96.9512 67.8076C96.3482 65.4036 97.1042 64.2686 103.63 57.7876C115.822 45.6796 117.171 44.9296 122.125 47.5136ZM185.087 90.7696C187.099 93.9316 190.437 98.3676 192.505 100.626C199.81 108.604 199.837 110.304 192.714 114.13C187.989 116.668 187.989 116.668 188.296 123.047C188.567 128.678 188.34 129.624 186.365 131.113C184.269 132.694 184.234 132.908 185.808 134.482C188.161 136.835 187.909 138.545 184.854 140.947C182.194 143.04 180.289 143.65 180.727 142.27C181.125 141.014 178.319 134.949 173.313 126.247C169.134 118.982 168.69 117.672 169.678 115.505C170.459 113.79 170.492 112.348 169.785 110.779C168.948 108.918 169.537 106.995 173.129 99.8686C175.527 95.1106 177.489 90.8226 177.489 90.3406C177.489 89.3646 180.368 85.0196 181.015 85.0196C181.242 85.0196 183.074 87.6076 185.087 90.7696ZM144.968 91.9956C145.951 93.0826 147.157 93.7246 147.647 93.4216C148.138 93.1186 148.415 93.2596 148.264 93.7336C148.113 94.2086 150.219 97.2116 152.945 100.407C167.823 117.85 139.552 150.206 123.3 134.335C118.595 129.741 118.46 131.143 124.902 117.763C127.879 111.579 131.253 103.323 132.401 99.4146C134.286 92.9946 134.801 92.2086 137.738 91.2666C142.448 89.7556 142.99 89.8106 144.968 91.9956ZM39.9652 93.4156C32.5522 96.6456 33.1522 107.433 40.8862 109.986C48.8972 112.63 55.5252 105.114 51.9072 97.4886C49.5362 92.4916 45.3572 91.0666 39.9652 93.4156ZM167.517 120.554C180.378 136.05 185.95 159.515 177.591 162.978C159.661 170.404 129.009 149.127 141.699 138.062C144.564 135.564 150.076 130.283 153.949 126.327C161.282 118.834 164.835 117.322 167.517 120.554ZM121.434 135.27C127.697 141.953 126.078 147.015 116.239 151.513C96.5902 160.496 92.9242 160.453 101.563 151.344C104.079 148.691 108.337 143.595 111.025 140.02C115.211 134.452 117.319 132.102 118.188 132.035C118.298 132.027 119.758 133.483 121.434 135.27ZM138.602 152.135C140.039 153.139 141.501 153.749 141.852 153.49C142.202 153.232 142.267 153.317 141.995 153.68C141.553 154.272 145.666 157.778 146.215 157.277C146.665 156.868 151.489 161.772 151.485 162.635C151.483 163.122 149.514 164.329 147.108 165.318C144.692 166.312 140.458 169.502 137.645 172.45C129.035 181.471 121.766 180.212 98.2392 165.624C94.5662 163.347 96.1982 161.194 103.239 159.028C106.952 157.885 113.364 155.194 117.489 153.047C125.885 148.676 133.202 148.36 138.602 152.135Z" fill="#142954"/>
<path fill-rule="evenodd" clip-rule="evenodd" d="M94.4892 2.01956C89.3712 7.13756 93.1232 13.6066 101.046 13.3266C107.153 13.1116 107.874 13.6096 116.127 23.7416C120.92 29.6266 121.439 31.8496 118.617 34.4036C115.967 36.8016 95.5012 36.2456 92.6872 33.6986C90.2632 31.5056 87.2102 31.5656 85.1442 33.8486C79.9252 39.6156 87.2642 45.6036 93.3132 40.5136C99.0232 35.7096 117.489 36.9396 117.489 42.1246C117.489 42.5216 113.92 45.8236 109.558 49.4616C105.196 53.0996 99.7562 58.3126 97.4682 61.0446C94.0962 65.0716 92.8732 65.9026 91.0072 65.4346C80.7162 62.8516 77.3672 79.1116 87.4872 82.5186C90.5712 83.5576 91.3402 84.5766 94.1212 91.3176C99.0022 103.151 108.398 119.491 114.122 126.099C118.446 131.091 99.1382 155.174 91.0562 154.868C85.8492 154.672 82.6992 156.334 81.8472 159.73C80.3382 165.741 87.0542 170.961 92.2452 167.811C94.8432 166.234 95.1602 166.316 103.084 170.6C115.918 177.539 116.796 177.948 117.667 177.41C118.119 177.13 118.489 177.282 118.489 177.745C118.489 178.209 119.839 179.386 121.489 180.361C123.714 181.675 124.489 182.875 124.489 185.004C124.489 188.193 128.417 192.02 131.69 192.02C137.212 192.02 140.315 186.436 137.744 181.126C133.402 172.161 146.147 164.529 163.555 165.67C180.004 166.748 184.489 163.772 184.489 151.779C184.489 145.767 184.839 144.392 187.039 141.779C188.919 139.544 189.435 138.049 189.003 136.084C188.681 134.618 189.055 131.903 189.835 130.049C190.824 127.696 190.986 125.752 190.37 123.606C188.978 118.753 189.177 118.387 194.989 115.107C202.313 110.973 202.196 109.503 193.699 98.9506C182.232 84.7106 182.091 84.3786 183.003 73.6846C184.79 52.7386 182.787 45.1566 171.489 30.0996C161.941 17.3756 143.326 6.81556 131.666 7.50856C129.919 7.61256 128.489 7.32056 128.489 6.85856C128.489 6.39756 123.624 6.01956 117.677 6.01956C106.865 6.01956 106.865 6.01956 104.647 3.01956C101.985 -0.581443 97.5292 -1.02044 94.4892 2.01956ZM140.992 11.0936C154.842 15.3706 176.271 32.0196 167.927 32.0196C165.526 32.0196 156.73 28.2986 155.682 26.8396C154.849 25.6786 153.115 25.0196 150.897 25.0196C148.984 25.0196 146.309 24.2926 144.954 23.4046C143.598 22.5166 142.489 22.1526 142.489 22.5956C142.489 23.0386 141.927 22.6496 141.239 21.7296C139.848 19.8686 129.66 14.6946 122.018 11.9676C109.212 7.39656 126.454 6.60256 140.992 11.0936ZM120.451 13.5066C132.588 17.6346 146.489 25.6706 146.489 28.5576C146.489 29.2336 145.702 30.0336 144.739 30.3366C143.776 30.6396 141.036 31.6036 138.649 32.4796C134.525 33.9926 134.146 33.9706 131.031 32.0456C129.228 30.9316 126.605 30.0196 125.203 30.0196C123.333 30.0196 122.035 29.0186 120.341 26.2696C119.071 24.2076 116.943 21.5066 115.614 20.2696C114.285 19.0326 113.511 18.0196 113.894 18.0196C114.278 18.0196 113.403 16.9176 111.95 15.5706C106.727 10.7306 109.972 9.94256 120.451 13.5066ZM152.876 35.0196C157.081 35.0196 161.542 39.7546 167.478 50.5196C175.236 64.5886 174.061 67.5286 164.255 58.5796C154.383 49.5696 153.673 51.4586 163.404 60.8426C174.884 71.9146 175.961 74.4236 174.124 85.8336C171.253 103.675 164.292 112.474 159.199 104.701C158.364 103.425 154.504 99.0376 150.623 94.9506C144.135 88.1176 143.614 87.2526 144.152 84.2046C144.674 81.2386 144.263 80.4486 140.244 76.7046C136.076 72.8216 135.664 71.9786 134.535 65.0196C133.866 60.8946 132.696 55.3476 131.935 52.6926C129.684 44.8406 133.127 42.0856 140.897 45.5216C147.26 48.3356 150.297 49.9676 152.64 51.8346C153.625 52.6196 154.529 52.7646 154.881 52.1946C155.629 50.9836 152.969 49.2626 143.194 44.6386C132.505 39.5806 131.964 36.8836 140.991 33.6586C144.417 32.4346 145.306 32.4296 147.204 33.6246C148.422 34.3916 150.974 35.0196 152.876 35.0196ZM167.027 34.1426C179.581 40.0436 183.827 51.5496 180.898 71.7316C180.44 74.8806 177.496 80.2006 177.488 77.8916C177.444 66.0926 170.271 48.7276 160.853 37.6246C155.824 31.6956 158.55 30.1576 167.027 34.1426ZM6.48923 37.0346C5.03323 37.3976 4.04223 38.3276 4.11523 39.2596C4.19123 40.2306 3.70123 40.6546 2.87123 40.3356C-0.341774 39.1026 -1.00777 48.7076 2.05623 52.0936C8.45423 59.1636 19.4472 54.1966 18.1872 44.8046C17.3782 38.7696 12.5052 35.5336 6.48923 37.0346ZM122.528 47.5396C124.145 48.3756 125.698 49.0506 125.979 49.0396C126.259 49.0286 126.933 49.0196 127.476 49.0196C131.996 49.0196 134.683 72.3666 130.564 75.8506C126.075 79.6476 125.43 84.6076 128.89 88.7196C132.931 93.5226 131.024 102.404 122.503 118.465C117.626 127.656 114.244 126.246 106.57 111.823C105.604 110.006 103.01 105.145 100.805 101.02C93.4752 87.3006 92.6612 83.7926 95.9122 79.9286C98.7182 76.5946 98.8292 75.2916 96.9512 67.8076C96.3482 65.4036 97.1042 64.2686 103.63 57.7876C115.886 45.6166 117.312 44.8426 122.528 47.5396ZM185.051 90.7696C187.044 93.9316 189.206 96.9696 189.855 97.5196C198.863 105.156 199.767 110.342 192.745 114.114C187.989 116.668 187.989 116.668 188.296 123.047C188.567 128.678 188.34 129.624 186.365 131.113C184.269 132.694 184.234 132.908 185.808 134.482C188.161 136.835 187.909 138.545 184.854 140.947C182.508 142.793 179.206 143.969 180.775 142.401C181.428 141.747 176.693 131.846 171.578 123.171C169.09 118.951 168.724 117.599 169.567 115.749C170.222 114.31 170.262 112.584 169.676 111.003C168.924 108.975 169.555 106.934 173.122 99.8686C175.524 95.1106 177.489 90.8226 177.489 90.3406C177.489 89.3646 180.368 85.0196 181.015 85.0196C181.242 85.0196 183.058 87.6076 185.051 90.7696ZM144.968 91.9956C145.951 93.0826 147.157 93.7246 147.647 93.4216C148.138 93.1186 148.415 93.2596 148.264 93.7336C148.113 94.2086 150.219 97.2116 152.945 100.407C167.823 117.85 139.552 150.206 123.3 134.335C118.605 129.751 118.517 130.948 124.45 118.734C127.179 113.116 130.553 104.873 131.948 100.415C134.265 93.0116 134.766 92.2196 137.737 91.2666C142.448 89.7556 142.99 89.8106 144.968 91.9956ZM40.7522 93.1356C35.2592 94.7216 33.0982 100.856 36.1882 106.087C41.9502 115.841 56.8052 107.809 51.9442 97.5666C51.0912 95.7686 49.2682 93.7846 47.8942 93.1586C45.0622 91.8676 45.1382 91.8686 40.7522 93.1356ZM167.498 120.531C171.401 125.234 182.135 147.376 182.746 151.986C184.872 168.014 161.438 168.234 141.963 152.369C134.688 146.443 134.647 144.211 141.7 138.062C144.566 135.564 150.078 130.262 153.95 126.28C161.273 118.748 164.782 117.259 167.498 120.531ZM121.434 135.27C128.07 142.351 126.18 146.938 114.384 152.374C97.2712 160.26 93.4032 159.949 101.563 151.344C104.079 148.691 108.337 143.595 111.025 140.02C115.211 134.452 117.319 132.102 118.188 132.035C118.298 132.027 119.758 133.483 121.434 135.27ZM138.602 152.135C140.039 153.139 141.501 153.749 141.852 153.49C142.202 153.232 142.267 153.317 141.995 153.68C141.553 154.272 145.666 157.778 146.215 157.277C146.665 156.868 151.489 161.772 151.485 162.635C151.483 163.122 149.514 164.329 147.108 165.318C144.664 166.323 140.44 169.521 137.532 172.568C134.285 175.971 131.494 178.02 130.109 178.02C128.888 178.02 127.407 178.502 126.818 179.091C125.881 180.028 107.427 171.37 98.5582 165.831C94.6362 163.382 96.0132 161.247 102.884 159.125C106.401 158.039 112.813 155.349 117.134 153.147C125.91 148.674 133.162 148.332 138.602 152.135Z" fill="#142954"/>
<path fill-rule="evenodd" clip-rule="evenodd" d="M6.48923 37.0346C5.03323 37.3976 4.04223 38.3276 4.11523 39.2596C4.19123 40.2306 3.70123 40.6546 2.87123 40.3356C-0.341774 39.1026 -1.00777 48.7076 2.05623 52.0936C8.45423 59.1636 19.4472 54.1966 18.1872 44.8046C17.3782 38.7696 12.5052 35.5336 6.48923 37.0346ZM40.7522 93.1356C35.2592 94.7216 33.0982 100.856 36.1882 106.087C41.9502 115.841 56.8052 107.809 51.9442 97.5666C51.0912 95.7686 49.2682 93.7846 47.8942 93.1586C45.0622 91.8676 45.1382 91.8686 40.7522 93.1356Z" fill="#142954"/>
</svg>
